<svg width="30" height="30" viewBox="0 0 30 30" fill="none" xmlns="http://www.w3.org/2000/svg">
<path fill-rule="evenodd" clip-rule="evenodd" d="M17.8127 5.59942L17.8127 9.4215C17.8125 9.56053 17.8122 9.75873 17.8388 9.92888C17.8713 10.1369 17.9783 10.5385 18.3941 10.7826C18.7946 11.0178 19.1863 10.9305 19.3725 10.8726C19.5348 10.8221 19.7128 10.7373 19.8455 10.6741L21.2502 10.0068L22.655 10.6741C22.7877 10.7373 22.9657 10.8221 23.128 10.8726C23.3142 10.9305 23.7059 11.0178 24.1064 10.7826C24.5222 10.5385 24.6292 10.1369 24.6617 9.92888C24.6883 9.75875 24.688 9.56056 24.6878 9.42153L24.6877 3.78913C24.8287 3.7825 24.9672 3.7769 25.1025 3.77218C26.4422 3.72552 27.5 4.82593 27.5 6.16649V20.1795C27.5 21.5682 26.3675 22.6918 24.9814 22.7785C23.7697 22.8543 22.3459 23.0025 21.25 23.2917C19.8982 23.6484 18.7635 24.626 17.0345 25.0866C16.2518 25.295 15.3788 25.4072 15.0002 25.4907V6.46733C15.4012 6.36913 16.728 6.21427 17.0923 6.00344C17.3227 5.87012 17.5642 5.73415 17.8127 5.59942ZM24.6598 16.0226C24.7853 16.5249 24.4799 17.0339 23.9776 17.1595L18.9776 18.4095C18.4753 18.5351 17.9663 18.2297 17.8407 17.7274C17.7152 17.2251 18.0206 16.7161 18.5229 16.5905L23.5229 15.3405C24.0252 15.2149 24.5342 15.5203 24.6598 16.0226Z" fill="white"/>
<path d="M22.8127 3.93876C22.0377 4.03039 21.2758 4.16449 20.625 4.3593C20.3231 4.44969 20.008 4.56426 19.6877 4.6955V4.93753V8.67324L20.6244 8.22832L20.6354 8.22277C20.6967 8.19145 20.9548 8.05946 21.2502 8.05946C21.3097 8.05946 21.3676 8.0648 21.4227 8.07358C21.6416 8.10848 21.8162 8.19775 21.8651 8.22277L21.8761 8.22832L22.8127 8.67324V4.55831V3.93876Z" fill="white"/>
<path opacity="0.5" d="M15 6.51744C14.5822 6.43808 13.6783 6.3158 12.8528 6.0943C11.1726 5.64344 10.0615 4.70536 8.75 4.35928C7.64186 4.06686 6.19847 3.9186 4.978 3.84359C3.60788 3.75938 2.5 4.87452 2.5 6.24723V20.1795C2.5 21.5682 3.63256 22.6918 5.01857 22.7785C6.23035 22.8543 7.65412 23.0025 8.75 23.2917C9.35745 23.452 10.2702 23.8306 11.0912 24.199C12.3469 24.7625 13.6559 25.1945 15 25.4907V6.51744Z" fill="white"/>
<path d="M5.34071 16.0228C5.46629 15.5205 5.97529 15.2151 6.4776 15.3407L11.4776 16.5907C11.9799 16.7163 12.2853 17.2253 12.1597 17.7276C12.0342 18.2299 11.5252 18.5353 11.0228 18.4097L6.02284 17.1597C5.52054 17.0342 5.21514 16.5252 5.34071 16.0228Z" fill="white"/>
<path d="M6.4776 10.3407C5.97529 10.2151 5.46629 10.5205 5.34071 11.0228C5.21514 11.5252 5.52054 12.0342 6.02284 12.1597L11.0228 13.4097C11.5252 13.5353 12.0342 13.2299 12.1597 12.7276C12.2853 12.2253 11.9799 11.7163 11.4776 11.5907L6.4776 10.3407Z" fill="white"/>
</svg>
