<svg width="30" height="30" viewBox="0 0 30 30" fill="none" xmlns="http://www.w3.org/2000/svg">
<path opacity="0.5" d="M17.5 5H12.5C7.78595 5 5.42893 5 3.96447 6.46447C2.5 7.92893 2.5 10.286 2.5 15C2.5 19.714 2.5 22.0711 3.96447 23.5355C5.42893 25 7.78595 25 12.5 25H17.5C22.214 25 24.5711 25 26.0355 23.5355C27.5 22.0711 27.5 19.714 27.5 15C27.5 10.286 27.5 7.92893 26.0355 6.46447C24.5711 5 22.214 5 17.5 5Z" fill="white"/>
<path d="M16.5625 11.25C16.5625 10.7322 16.9822 10.3125 17.5 10.3125H23.75C24.2678 10.3125 24.6875 10.7322 24.6875 11.25C24.6875 11.7678 24.2678 12.1875 23.75 12.1875H17.5C16.9822 12.1875 16.5625 11.7678 16.5625 11.25Z" fill="white"/>
<path d="M17.8125 15C17.8125 14.4822 18.2322 14.0625 18.75 14.0625H23.75C24.2678 14.0625 24.6875 14.4822 24.6875 15C24.6875 15.5178 24.2678 15.9375 23.75 15.9375H18.75C18.2322 15.9375 17.8125 15.5178 17.8125 15Z" fill="white"/>
<path d="M19.0625 18.75C19.0625 18.2322 19.4822 17.8125 20 17.8125H23.75C24.2678 17.8125 24.6875 18.2322 24.6875 18.75C24.6875 19.2678 24.2678 19.6875 23.75 19.6875H20C19.4822 19.6875 19.0625 19.2678 19.0625 18.75Z" fill="white"/>
<path d="M11.25 13.75C12.6307 13.75 13.75 12.6307 13.75 11.25C13.75 9.86929 12.6307 8.75 11.25 8.75C9.86929 8.75 8.75 9.86929 8.75 11.25C8.75 12.6307 9.86929 13.75 11.25 13.75Z" fill="white"/>
<path d="M11.25 21.25C16.25 21.25 16.25 20.1307 16.25 18.75C16.25 17.3693 14.0114 16.25 11.25 16.25C8.48858 16.25 6.25 17.3693 6.25 18.75C6.25 20.1307 6.25 21.25 11.25 21.25Z" fill="white"/>
</svg>
