<svg width="70" height="70" viewBox="0 0 70 70" fill="none" xmlns="http://www.w3.org/2000/svg">
<path fill-rule="evenodd" clip-rule="evenodd" d="M9.57958 32.8593C9.19085 27.0283 8.99648 24.1128 10.7255 22.2647C12.4545 20.4166 15.3764 20.4166 21.2204 20.4166H37.1131C42.957 20.4166 45.879 20.4166 47.608 22.2647C48.0818 22.7711 48.4111 23.3577 48.6317 24.0625H49.5834C56.9513 24.0625 63.4375 29.347 63.4375 36.4583C63.4375 43.5696 56.9513 48.8541 49.5834 48.8541H47.6874C47.6535 49.3574 47.6203 49.8433 47.5869 50.3125H10.7465C10.6911 49.5324 10.636 48.7063 10.5777 47.8307L9.57958 32.8593ZM47.9792 44.4791H49.5834C55.1021 44.4791 59.0625 40.6228 59.0625 36.4583C59.0625 32.2938 55.1021 28.4375 49.5834 28.4375H49.0021C48.965 29.692 48.8678 31.1505 48.7539 32.8593L47.9792 44.4791Z" fill="url(#paint0_linear_37_772)"/>
<path d="M11.1388 54.6875H47.1946C46.7751 58.1193 46.0909 60.2791 44.4585 61.8063C41.9356 64.1666 38.0552 64.1666 30.2946 64.1666H28.0389C20.2782 64.1666 16.3979 64.1666 13.875 61.8063C12.2426 60.2791 11.5583 58.1193 11.1388 54.6875Z" fill="url(#paint1_linear_37_772)"/>
<path fill-rule="evenodd" clip-rule="evenodd" d="M20.3505 3.86993C21.3341 4.57149 21.5627 5.93754 20.8611 6.92109L19.7351 8.49974C21.5604 9.88302 21.965 12.4767 20.6263 14.3535L19.4286 16.0325C18.7271 17.016 17.361 17.2446 16.3775 16.5431C15.3939 15.8415 15.1653 14.4755 15.8669 13.4919L16.9929 11.9133C15.1676 10.53 14.763 7.93633 16.1017 6.05955L17.2994 4.38052C18.0009 3.39697 19.367 3.16837 20.3505 3.86993ZM32.0172 3.86993C33.0007 4.57149 33.2293 5.93754 32.5278 6.92109L31.4017 8.49974C33.2271 9.88302 33.6316 12.4767 32.2929 14.3535L31.0953 16.0325C30.3937 17.016 29.0277 17.2446 28.0441 16.5431C27.0606 15.8415 26.832 14.4755 27.5335 13.4919L28.6596 11.9133C26.8343 10.53 26.4297 7.93633 27.7684 6.05955L28.966 4.38052C29.6676 3.39697 31.0336 3.16837 32.0172 3.86993ZM43.6839 3.86993C44.6674 4.57149 44.896 5.93754 44.1945 6.92109L43.0684 8.49974C44.8937 9.88302 45.2983 12.4767 43.9596 14.3535L42.7619 16.0325C42.0604 17.016 40.6943 17.2446 39.7108 16.5431C38.7272 15.8415 38.4986 14.4755 39.2002 13.4919L40.3262 11.9133C38.5009 10.53 38.0964 7.93633 39.4351 6.05955L40.6327 4.38052C41.3343 3.39697 42.7003 3.16837 43.6839 3.86993Z" fill="url(#paint2_linear_37_772)"/>
<defs>
<linearGradient id="paint0_linear_37_772" x1="9.31543" y1="42.2916" x2="63.4375" y2="42.2916" gradientUnits="userSpaceOnUse">
<stop stop-color="#1C7BB3"/>
<stop offset="1" stop-color="#004F92"/>
</linearGradient>
<linearGradient id="paint1_linear_37_772" x1="9.31543" y1="42.2916" x2="63.4375" y2="42.2916" gradientUnits="userSpaceOnUse">
<stop stop-color="#1C7BB3"/>
<stop offset="1" stop-color="#004F92"/>
</linearGradient>
<linearGradient id="paint2_linear_37_772" x1="15.3114" y1="10.2065" x2="44.7499" y2="10.2065" gradientUnits="userSpaceOnUse">
<stop stop-color="#1C7BB3"/>
<stop offset="1" stop-color="#004F92"/>
</linearGradient>
</defs>
</svg>
