<svg width="70" height="70" viewBox="0 0 70 70" fill="none" xmlns="http://www.w3.org/2000/svg">
<path fill-rule="evenodd" clip-rule="evenodd" d="M9.47913 17.4999C9.47913 9.84847 15.6818 3.64575 23.3333 3.64575H46.6666C54.3181 3.64575 60.5208 9.84847 60.5208 17.4999V52.4999C60.5208 60.1514 54.3181 66.3541 46.6666 66.3541H23.3333C15.6818 66.3541 9.47913 60.1514 9.47913 52.4999V17.4999ZM23.3333 18.2291C22.1252 18.2291 21.1458 19.2085 21.1458 20.4166C21.1458 21.6247 22.1252 22.6041 23.3333 22.6041H46.6666C47.8747 22.6041 48.8541 21.6247 48.8541 20.4166C48.8541 19.2085 47.8747 18.2291 46.6666 18.2291H23.3333ZM21.1458 34.9999C21.1458 33.7918 22.1252 32.8124 23.3333 32.8124H46.6666C47.8747 32.8124 48.8541 33.7918 48.8541 34.9999C48.8541 36.208 47.8747 37.1874 46.6666 37.1874H23.3333C22.1252 37.1874 21.1458 36.208 21.1458 34.9999ZM23.3333 47.3958C22.1252 47.3958 21.1458 48.3751 21.1458 49.5833C21.1458 50.7914 22.1252 51.7708 23.3333 51.7708H35C36.2081 51.7708 37.1875 50.7914 37.1875 49.5833C37.1875 48.3751 36.2081 47.3958 35 47.3958H23.3333Z" fill="url(#paint0_linear_37_796)"/>
<defs>
<linearGradient id="paint0_linear_37_796" x1="9.47913" y1="34.9999" x2="60.5208" y2="34.9999" gradientUnits="userSpaceOnUse">
<stop stop-color="#1C7BB3"/>
<stop offset="1" stop-color="#004F92"/>
</linearGradient>
</defs>
</svg>
