<svg width="70" height="70" viewBox="0 0 70 70" fill="none" xmlns="http://www.w3.org/2000/svg">
<path d="M5.83337 20.2701C5.83337 17.6961 5.83337 16.4091 6.03565 15.337C6.92607 10.6176 10.6176 6.92607 15.337 6.03565C16.4091 5.83337 17.6961 5.83337 20.2701 5.83337C21.3979 5.83337 21.9619 5.83337 22.5038 5.88405C24.8403 6.10254 27.0566 7.02056 28.8632 8.51821C29.2822 8.86558 29.681 9.26432 30.4785 10.0618L32.0834 11.6667C34.4627 14.0461 35.6524 15.2357 37.0771 16.0284C37.8597 16.4638 38.6898 16.8076 39.5511 17.0531C41.1189 17.5 42.8014 17.5 46.1663 17.5H47.2562C54.9339 17.5 58.7728 17.5 61.268 19.7443C61.4976 19.9508 61.716 20.1692 61.9224 20.3987C64.1667 22.894 64.1667 26.7329 64.1667 34.4106V40.8334C64.1667 51.8328 64.1667 57.3325 60.7496 60.7496C57.3325 64.1667 51.8328 64.1667 40.8334 64.1667H29.1667C18.1673 64.1667 12.6676 64.1667 9.25046 60.7496C5.83337 57.3325 5.83337 51.8328 5.83337 40.8334V20.2701Z" fill="url(#paint0_linear_37_805)"/>
<path fill-rule="evenodd" clip-rule="evenodd" d="M35.7292 29.1667C35.7292 27.9586 36.7086 26.9792 37.9167 26.9792H52.5C53.7082 26.9792 54.6875 27.9586 54.6875 29.1667C54.6875 30.3748 53.7082 31.3542 52.5 31.3542H37.9167C36.7086 31.3542 35.7292 30.3748 35.7292 29.1667Z" fill="white"/>
<path d="M49.5414 8.8111C49.0936 8.75004 48.5603 8.75004 47.4936 8.75004H35L36.0788 9.86748C38.0213 11.8796 38.7681 12.6307 39.6308 13.1278C40.1315 13.4164 40.6627 13.6443 41.2138 13.807C42.1631 14.0873 43.2039 14.1032 45.951 14.1032L46.9263 14.1032C49.85 14.1032 52.207 14.1032 54.0718 14.346C54.537 14.4066 54.9853 14.4837 55.4167 14.5834C54.8753 11.5592 52.5125 9.21628 49.5414 8.8111Z" fill="url(#paint1_linear_37_805)"/>
<defs>
<linearGradient id="paint0_linear_37_805" x1="5.83337" y1="35" x2="64.1667" y2="35" gradientUnits="userSpaceOnUse">
<stop stop-color="#1C7BB3"/>
<stop offset="1" stop-color="#004F92"/>
</linearGradient>
<linearGradient id="paint1_linear_37_805" x1="5.83337" y1="35" x2="64.1667" y2="35" gradientUnits="userSpaceOnUse">
<stop stop-color="#1C7BB3"/>
<stop offset="1" stop-color="#004F92"/>
</linearGradient>
</defs>
</svg>
