<svg width="32" height="32" viewBox="0 0 32 32" fill="none" xmlns="http://www.w3.org/2000/svg">
<rect width="32" height="32" rx="8" fill="url(#paint0_radial_37_709)"/>
<path d="M20.5832 6.83317C21.7977 6.8368 22.9615 7.32088 23.8203 8.1797C24.6791 9.03852 25.1632 10.2023 25.1668 11.4168V20.5832C25.1632 21.7977 24.6791 22.9615 23.8203 23.8203C22.9615 24.6791 21.7977 25.1632 20.5832 25.1668H11.4168C10.2023 25.1632 9.03852 24.6791 8.1797 23.8203C7.32088 22.9615 6.8368 21.7977 6.83317 20.5832V11.4168C6.8368 10.2023 7.32088 9.03852 8.1797 8.1797C9.03852 7.32088 10.2023 6.8368 11.4168 6.83317H20.5832ZM20.5832 5H11.4168C7.8875 5 5 7.8875 5 11.4168V20.5832C5 24.1125 7.8875 27 11.4168 27H20.5832C24.1125 27 27 24.1125 27 20.5832V11.4168C27 7.8875 24.1125 5 20.5832 5Z" fill="white"/>
<path d="M21.9582 11.4167C21.6862 11.4167 21.4204 11.3361 21.1943 11.185C20.9681 11.0339 20.7919 10.8192 20.6878 10.5679C20.5838 10.3167 20.5565 10.0402 20.6096 9.7735C20.6626 9.50678 20.7936 9.26177 20.9859 9.06948C21.1782 8.87718 21.4232 8.74622 21.6899 8.69317C21.9566 8.64011 22.2331 8.66734 22.4844 8.77141C22.7356 8.87548 22.9504 9.05172 23.1014 9.27784C23.2525 9.50396 23.3332 9.7698 23.3332 10.0417C23.3336 10.2224 23.2983 10.4014 23.2293 10.5684C23.1603 10.7354 23.0591 10.8871 22.9313 11.0149C22.8036 11.1426 22.6518 11.2439 22.4848 11.3129C22.3178 11.3818 22.1388 11.4171 21.9582 11.4167ZM16 12.3331C16.7252 12.3331 17.4342 12.5481 18.0372 12.9511C18.6402 13.354 19.1102 13.9267 19.3877 14.5967C19.6652 15.2667 19.7379 16.004 19.5964 16.7153C19.4549 17.4266 19.1057 18.0799 18.5928 18.5928C18.08 19.1056 17.4267 19.4548 16.7154 19.5963C16.0041 19.7378 15.2668 19.6652 14.5968 19.3876C13.9267 19.1101 13.3541 18.6401 12.9511 18.0371C12.5482 17.4341 12.3332 16.7251 12.3332 15.9999C12.3342 15.0277 12.7209 14.0957 13.4083 13.4082C14.0957 12.7208 15.0278 12.3341 16 12.3331ZM16 10.4999C14.9122 10.4999 13.8488 10.8225 12.9444 11.4268C12.0399 12.0312 11.3349 12.8902 10.9187 13.8952C10.5024 14.9002 10.3935 16.006 10.6057 17.0729C10.8179 18.1398 11.3417 19.1198 12.1109 19.889C12.8801 20.6582 13.8601 21.182 14.927 21.3942C15.9939 21.6065 17.0998 21.4975 18.1048 21.0813C19.1098 20.665 19.9687 19.96 20.5731 19.0556C21.1774 18.1511 21.5 17.0877 21.5 15.9999C21.5 14.5412 20.9205 13.1423 19.8891 12.1108C18.8576 11.0794 17.4587 10.4999 16 10.4999Z" fill="white"/>
<defs>
<radialGradient id="paint0_radial_37_709" cx="0" cy="0" r="1" gradientUnits="userSpaceOnUse" gradientTransform="translate(32.6437 0.650001) scale(73.8975)">
<stop stop-color="#F9ED32"/>
<stop offset="0.36" stop-color="#EE2A7B"/>
<stop offset="0.44" stop-color="#D22A8A"/>
<stop offset="0.6" stop-color="#8B2AB2"/>
<stop offset="0.83" stop-color="#1B2AF0"/>
<stop offset="0.88" stop-color="#002AFF"/>
</radialGradient>
</defs>
</svg>
