<svg width="70" height="70" viewBox="0 0 70 70" fill="none" xmlns="http://www.w3.org/2000/svg">
<path fill-rule="evenodd" clip-rule="evenodd" d="M9.47913 64.1666C9.47913 62.9585 10.4585 61.9791 11.6666 61.9791H58.3333C59.5414 61.9791 60.5208 62.9585 60.5208 64.1666C60.5208 65.3747 59.5414 66.3541 58.3333 66.3541H11.6666C10.4585 66.3541 9.47913 65.3747 9.47913 64.1666Z" fill="url(#paint0_linear_37_780)"/>
<path d="M33.6002 43.5428L33.6002 43.5428L50.8572 26.2858C48.5085 25.3082 45.7267 23.7025 43.0958 21.0716C40.4645 18.4403 38.8587 15.6581 37.8812 13.3091L20.6239 30.5665L20.6238 30.5665C19.2772 31.9132 18.6038 32.5866 18.0247 33.329C17.3416 34.2048 16.7559 35.1524 16.2781 36.1551C15.873 37.0051 15.5719 37.9085 14.9696 39.7153L11.7937 49.2431C11.4973 50.1322 11.7287 51.1125 12.3914 51.7752C13.0542 52.438 14.0344 52.6694 14.9236 52.373L24.4514 49.1971C26.2582 48.5948 27.1616 48.2937 28.0116 47.8886C29.0142 47.4107 29.9619 46.8251 30.8377 46.1419C31.5801 45.5629 32.2535 44.8895 33.6002 43.5428Z" fill="url(#paint1_linear_37_780)"/>
<path d="M55.6458 21.4972C59.2291 17.9139 59.2291 12.1042 55.6458 8.52086C52.0625 4.93755 46.2528 4.93755 42.6695 8.52086L40.5997 10.5906C40.6281 10.6762 40.6575 10.763 40.688 10.8509C41.4466 13.0375 42.878 15.9041 45.5707 18.5968C48.2634 21.2895 51.1299 22.7208 53.3166 23.4795C53.4041 23.5098 53.4905 23.5391 53.5757 23.5673L55.6458 21.4972Z" fill="url(#paint2_linear_37_780)"/>
<defs>
<linearGradient id="paint0_linear_37_780" x1="9.47913" y1="64.1666" x2="60.5208" y2="64.1666" gradientUnits="userSpaceOnUse">
<stop stop-color="#1C7BB3"/>
<stop offset="1" stop-color="#004F92"/>
</linearGradient>
<linearGradient id="paint1_linear_37_780" x1="11.6666" y1="29.1667" x2="58.3333" y2="29.1667" gradientUnits="userSpaceOnUse">
<stop stop-color="#1C7BB3"/>
<stop offset="1" stop-color="#004F92"/>
</linearGradient>
<linearGradient id="paint2_linear_37_780" x1="11.6666" y1="29.1667" x2="58.3333" y2="29.1667" gradientUnits="userSpaceOnUse">
<stop stop-color="#1C7BB3"/>
<stop offset="1" stop-color="#004F92"/>
</linearGradient>
</defs>
</svg>
