<svg width="70" height="70" viewBox="0 0 70 70" fill="none" xmlns="http://www.w3.org/2000/svg">
<path fill-rule="evenodd" clip-rule="evenodd" d="M8.09104 36.4041C8.95508 37.2692 8.95423 38.6709 8.08914 39.5349L7.63517 39.9883C7.24739 40.3756 7.24739 41.0024 7.63517 41.3897C8.02443 41.7785 8.65666 41.7785 9.04593 41.3897L14.0396 36.4022C14.9047 35.5381 16.3064 35.539 17.1705 36.4041C18.0345 37.2692 18.0337 38.6709 17.1686 39.5349L12.1749 44.5225C10.0569 46.6378 6.62416 46.6378 4.50621 44.5225C2.38677 42.4056 2.38677 38.9724 4.50621 36.8556L4.96018 36.4022C5.82527 35.5381 7.22701 35.539 8.09104 36.4041ZM22.4194 39.3448C23.2839 40.2094 23.2839 41.6111 22.4194 42.4757L16.1707 48.7243C15.3061 49.5889 13.9044 49.5889 13.0398 48.7243C12.1752 47.8597 12.1752 46.458 13.0398 45.5935L19.2885 39.3448C20.1531 38.4803 21.5548 38.4803 22.4194 39.3448ZM30.6127 47.5281C31.4773 48.3927 31.4773 49.7944 30.6127 50.659L24.4068 56.8649C23.5422 57.7294 22.1405 57.7294 21.2759 56.8649C20.4113 56.0003 20.4113 54.5986 21.2759 53.734L27.4819 47.5281C28.3464 46.6636 29.7482 46.6636 30.6127 47.5281ZM21.2834 48.6966C22.1383 49.5707 22.1227 50.9724 21.2486 51.8272L16.2023 56.7624C15.3281 57.6173 13.9265 57.6017 13.0716 56.7276C12.2167 55.8535 12.2323 54.4518 13.1064 53.597L18.1528 48.6618C19.0269 47.8069 20.4285 47.8225 21.2834 48.6966ZM33.4865 52.8443C34.3506 53.7094 34.3497 55.1111 33.4846 55.9751L28.491 60.9627C28.1032 61.35 28.1032 61.9768 28.491 62.3641C28.8802 62.7529 29.5124 62.7529 29.9017 62.3641L30.3557 61.9107C31.2208 61.0467 32.6225 61.0475 33.4865 61.9126C34.3506 62.7777 34.3497 64.1794 33.4846 65.0434L33.0307 65.4969C30.9127 67.6122 27.48 67.6122 25.362 65.4969C23.2426 63.38 23.2426 59.9468 25.362 57.83L30.3557 52.8424C31.2208 51.9784 32.6225 51.9792 33.4865 52.8443Z" fill="url(#paint0_linear_37_788)"/>
<path d="M31.6351 15.7766L25.2543 22.1382C24.0814 23.3075 23.0055 24.3801 22.1559 25.3497C21.6103 25.9724 21.065 26.6539 20.6031 27.407L20.5409 27.345C20.4229 27.2273 20.3639 27.1684 20.3046 27.1109C19.1955 26.0348 17.891 25.1793 16.4607 24.59C16.3843 24.5585 16.3067 24.5278 16.1516 24.4663L15.2015 24.0898C13.9145 23.5799 13.5715 21.923 14.5508 20.9467C17.3614 18.1446 20.736 14.7803 22.3646 14.1046C23.8008 13.5086 25.3524 13.3104 26.8488 13.5315C28.2199 13.7341 29.5169 14.4384 31.6351 15.7766Z" fill="url(#paint1_linear_37_788)"/>
<path d="M42.5303 49.272C43.0445 49.7938 43.386 50.1625 43.6946 50.5563C44.102 51.0761 44.4662 51.6281 44.7837 52.2069C45.1411 52.8584 45.4185 53.5544 45.9734 54.9464C46.4251 56.0796 47.9258 56.3792 48.7975 55.5101L49.0083 55.2999C51.8189 52.4977 55.1934 49.1333 55.8711 47.5096C56.4688 46.0777 56.6677 44.5308 56.4459 43.0389C56.2427 41.6722 55.5365 40.3792 54.1945 38.2679L47.7924 44.6507C46.593 45.8466 45.4932 46.9431 44.4985 47.8021C43.9025 48.3169 43.2503 48.8314 42.5303 49.272Z" fill="url(#paint2_linear_37_788)"/>
<path fill-rule="evenodd" clip-rule="evenodd" d="M45.2149 41.905L59.8848 27.2793C61.9975 25.173 63.0538 24.1198 63.6102 22.7806C64.1666 21.4413 64.1666 19.9519 64.1666 16.9732V15.5501C64.1666 10.9696 64.1666 8.67935 62.7393 7.25636C61.3121 5.83337 59.0149 5.83337 54.4205 5.83337H52.9932C50.0054 5.83337 48.5115 5.83337 47.1682 6.38811C45.825 6.94284 44.7686 7.996 42.6559 10.1023L27.986 24.728C25.5174 27.1893 23.9866 28.7154 23.3939 30.1894C23.2066 30.6551 23.113 31.1156 23.113 31.5988C23.113 33.6112 24.7373 35.2307 27.986 38.4696L28.4226 38.9049L33.5373 33.714C34.2668 32.9737 35.4582 32.9649 36.1985 33.6943C36.9388 34.4237 36.9476 35.6151 36.2182 36.3554L31.0879 41.5621L31.4318 41.905C34.6805 45.1439 36.3049 46.7634 38.3233 46.7634C38.7693 46.7634 39.1961 46.6843 39.6253 46.5262C41.1389 45.9687 42.684 44.4283 45.2149 41.905ZM52.1067 24.7291C50.2037 26.6264 47.1182 26.6264 45.2152 24.7291C43.3121 22.8318 43.3121 19.7556 45.2152 17.8583C47.1182 15.961 50.2037 15.961 52.1067 17.8583C54.0098 19.7556 54.0098 22.8318 52.1067 24.7291Z" fill="url(#paint3_linear_37_788)"/>
<defs>
<linearGradient id="paint0_linear_37_788" x1="2.91663" y1="36.4584" x2="64.1666" y2="36.4584" gradientUnits="userSpaceOnUse">
<stop stop-color="#1C7BB3"/>
<stop offset="1" stop-color="#004F92"/>
</linearGradient>
<linearGradient id="paint1_linear_37_788" x1="2.91663" y1="36.4584" x2="64.1666" y2="36.4584" gradientUnits="userSpaceOnUse">
<stop stop-color="#1C7BB3"/>
<stop offset="1" stop-color="#004F92"/>
</linearGradient>
<linearGradient id="paint2_linear_37_788" x1="2.91663" y1="36.4584" x2="64.1666" y2="36.4584" gradientUnits="userSpaceOnUse">
<stop stop-color="#1C7BB3"/>
<stop offset="1" stop-color="#004F92"/>
</linearGradient>
<linearGradient id="paint3_linear_37_788" x1="2.91663" y1="36.4584" x2="64.1666" y2="36.4584" gradientUnits="userSpaceOnUse">
<stop stop-color="#1C7BB3"/>
<stop offset="1" stop-color="#004F92"/>
</linearGradient>
</defs>
</svg>
