<svg width="32" height="32" viewBox="0 0 32 32" fill="none" xmlns="http://www.w3.org/2000/svg">
<rect width="32" height="32" rx="8" fill="#24A2DF"/>
<path fill-rule="evenodd" clip-rule="evenodd" d="M7.19006 16.2107C11.8548 14.1849 14.9602 12.8388 16.5195 12.1858C20.9577 10.3332 21.8906 10.0133 22.4903 10C22.6236 10 22.9168 10.0267 23.1168 10.1866C23.2767 10.3199 23.3167 10.4931 23.3433 10.6264C23.37 10.7597 23.3966 11.0396 23.37 11.2528C23.1301 13.7851 22.0905 19.9292 21.5574 22.7547C21.3308 23.9542 20.891 24.354 20.4645 24.394C19.5316 24.474 18.8252 23.7809 17.9322 23.1945C16.5195 22.2749 15.7332 21.7018 14.3604 20.7955C12.7744 19.7559 13.8006 19.1828 14.7069 18.2499C14.9468 18.01 19.0385 14.2782 19.1184 13.945C19.1317 13.905 19.1317 13.7451 19.0385 13.6651C18.9452 13.5852 18.8119 13.6118 18.7053 13.6385C18.5587 13.6651 16.3196 15.1578 11.9614 18.1033C11.3217 18.5431 10.7486 18.7563 10.2288 18.743C9.65569 18.7297 8.56282 18.4232 7.73649 18.1566C6.73691 17.8367 5.93724 17.6635 6.00388 17.1037C6.04387 16.8105 6.4437 16.5173 7.19006 16.2107Z" fill="white"/>
</svg>
