<svg width="70" height="70" viewBox="0 0 70 70" fill="none" xmlns="http://www.w3.org/2000/svg">
<path d="M53.5409 4.70788C54.1625 3.67192 55.5062 3.336 56.5422 3.95757L55.4167 5.83334C56.5422 3.95757 56.5412 3.95698 56.5422 3.95757L56.5462 3.96001L56.5508 3.96278L56.5616 3.96935L56.5896 3.98662C56.611 3.99996 56.638 4.01699 56.6701 4.03775C56.7343 4.07926 56.8192 4.13577 56.9218 4.20761C57.1269 4.35117 57.4039 4.5568 57.7286 4.82733C58.3764 5.36717 59.2235 6.17362 60.0672 7.27043C61.7673 9.48049 63.4375 12.8548 63.4375 17.5C63.4375 22.1452 61.7673 25.5195 60.0672 27.7296C59.2235 28.8264 58.3764 29.6328 57.7286 30.1727C57.4039 30.4432 57.1269 30.6488 56.9218 30.7924C56.8192 30.8642 56.7343 30.9208 56.6701 30.9623C56.6541 30.9726 56.6393 30.982 56.6259 30.9906C56.6125 30.9991 56.6003 31.0067 56.5896 31.0134L56.5616 31.0307L56.5508 31.0372L56.5462 31.04C56.5452 31.0406 56.5422 31.0424 55.4167 29.1667L56.5422 31.0424C55.5062 31.664 54.1625 31.3281 53.5409 30.2921C52.922 29.2605 53.2525 27.9238 54.2782 27.2988L54.2944 27.2885C54.3156 27.2747 54.356 27.2481 54.4129 27.2083C54.5268 27.1285 54.7055 26.9969 54.9278 26.8117C55.3737 26.4401 55.9849 25.8611 56.5995 25.0621C57.8161 23.4805 59.0625 21.0214 59.0625 17.5C59.0625 13.9786 57.8161 11.5195 56.5995 9.93791C55.9849 9.13889 55.3737 8.55992 54.9278 8.1883C54.7055 8.00311 54.5268 7.8715 54.4129 7.79175C54.356 7.75194 54.3156 7.72528 54.2944 7.71153L54.2782 7.70123C53.2525 7.07624 52.922 5.73948 53.5409 4.70788Z" fill="url(#paint0_linear_37_764)"/>
<path d="M29.1667 29.1667C35.61 29.1667 40.8334 23.9433 40.8334 17.5C40.8334 11.0567 35.61 5.83334 29.1667 5.83334C22.7234 5.83334 17.5 11.0567 17.5 17.5C17.5 23.9433 22.7234 29.1667 29.1667 29.1667Z" fill="url(#paint1_linear_37_764)"/>
<path d="M5.83337 51.0417C5.83337 58.2904 5.83337 64.1667 29.1667 64.1667C52.5 64.1667 52.5 58.2904 52.5 51.0417C52.5 43.7929 42.0534 37.9167 29.1667 37.9167C16.2801 37.9167 5.83337 43.7929 5.83337 51.0417Z" fill="url(#paint2_linear_37_764)"/>
<path d="M50.7088 9.79091C49.6729 9.16933 48.3292 9.50526 47.7076 10.5412L48.4316 13.5264L48.4543 13.5419C48.4884 13.5658 48.5532 13.6131 48.6387 13.6844C48.8112 13.8281 49.0578 14.0608 49.3078 14.3858C49.7953 15.0195 50.3125 16.0202 50.3125 17.5C50.3125 18.9798 49.7953 19.9805 49.3078 20.6142C49.0578 20.9392 48.8112 21.1719 48.6387 21.3156C48.5532 21.3869 48.4884 21.4342 48.4543 21.4581L48.4316 21.4736C47.4163 22.102 47.0913 23.4317 47.7076 24.4588C48.3292 25.4948 49.6729 25.8307 50.7088 25.2091L49.5834 23.3333C50.7088 25.2091 50.7079 25.2097 50.7088 25.2091L50.7127 25.2068L50.7169 25.2042L50.7262 25.1986L50.7479 25.1852L50.804 25.1496C50.8468 25.1219 50.9004 25.0862 50.9632 25.0422C51.0885 24.9545 51.2516 24.8332 51.4395 24.6766C51.8139 24.3646 52.2965 23.9045 52.7756 23.2817C53.7465 22.0195 54.6875 20.1036 54.6875 17.5C54.6875 14.8964 53.7465 12.9805 52.7756 11.7183C52.2965 11.0955 51.8139 10.6354 51.4395 10.3234C51.2516 10.1668 51.0885 10.0455 50.9632 9.95777C50.9004 9.91384 50.8468 9.87813 50.804 9.85043L50.7479 9.8148L50.7262 9.8014L50.7169 9.79579L50.7127 9.79326C50.7118 9.79268 50.7088 9.79091 49.5834 11.6667L50.7088 9.79091Z" fill="url(#paint3_linear_37_764)"/>
<defs>
<linearGradient id="paint0_linear_37_764" x1="5.83337" y1="33.9061" x2="63.4375" y2="33.9061" gradientUnits="userSpaceOnUse">
<stop stop-color="#1C7BB3"/>
<stop offset="1" stop-color="#004F92"/>
</linearGradient>
<linearGradient id="paint1_linear_37_764" x1="5.83337" y1="33.9061" x2="63.4375" y2="33.9061" gradientUnits="userSpaceOnUse">
<stop stop-color="#1C7BB3"/>
<stop offset="1" stop-color="#004F92"/>
</linearGradient>
<linearGradient id="paint2_linear_37_764" x1="5.83337" y1="33.9061" x2="63.4375" y2="33.9061" gradientUnits="userSpaceOnUse">
<stop stop-color="#1C7BB3"/>
<stop offset="1" stop-color="#004F92"/>
</linearGradient>
<linearGradient id="paint3_linear_37_764" x1="5.83337" y1="33.9061" x2="63.4375" y2="33.9061" gradientUnits="userSpaceOnUse">
<stop stop-color="#1C7BB3"/>
<stop offset="1" stop-color="#004F92"/>
</linearGradient>
</defs>
</svg>
