<svg width="32" height="32" viewBox="0 0 32 32" fill="none" xmlns="http://www.w3.org/2000/svg">
<rect width="32" height="32" rx="8" fill="#26D044"/>
<path d="M23 8.91006C22.0832 7.98399 20.9912 7.24973 19.7876 6.75011C18.5841 6.25049 17.2931 5.99552 15.99 6.00006C10.53 6.00006 6.08 10.4501 6.08 15.9101C6.08 17.6601 6.54 19.3601 7.4 20.8601L6 26.0001L11.25 24.6201C12.7 25.4101 14.33 25.8301 15.99 25.8301C21.45 25.8301 25.9 21.3801 25.9 15.9201C25.9 13.2701 24.87 10.7801 23 8.91006ZM15.99 24.1501C14.51 24.1501 13.06 23.7501 11.79 23.0001L11.49 22.8201L8.37 23.6401L9.2 20.6001L9 20.2901C8.17775 18.977 7.74114 17.4593 7.74 15.9101C7.74 11.3701 11.44 7.67006 15.98 7.67006C18.18 7.67006 20.25 8.53006 21.8 10.0901C22.5675 10.854 23.1757 11.7627 23.5894 12.7635C24.0031 13.7642 24.214 14.8372 24.21 15.9201C24.23 20.4601 20.53 24.1501 15.99 24.1501ZM20.51 17.9901C20.26 17.8701 19.04 17.2701 18.82 17.1801C18.59 17.1001 18.43 17.0601 18.26 17.3001C18.09 17.5501 17.62 18.1101 17.48 18.2701C17.34 18.4401 17.19 18.4601 16.94 18.3301C16.69 18.2101 15.89 17.9401 14.95 17.1001C14.21 16.4401 13.72 15.6301 13.57 15.3801C13.43 15.1301 13.55 15.0001 13.68 14.8701C13.79 14.7601 13.93 14.5801 14.05 14.4401C14.17 14.3001 14.22 14.1901 14.3 14.0301C14.38 13.8601 14.34 13.7201 14.28 13.6001C14.22 13.4801 13.72 12.2601 13.52 11.7601C13.32 11.2801 13.11 11.3401 12.96 11.3301H12.48C12.31 11.3301 12.05 11.3901 11.82 11.6401C11.6 11.8901 10.96 12.4901 10.96 13.7101C10.96 14.9301 11.85 16.1101 11.97 16.2701C12.09 16.4401 13.72 18.9401 16.2 20.0101C16.79 20.2701 17.25 20.4201 17.61 20.5301C18.2 20.7201 18.74 20.6901 19.17 20.6301C19.65 20.5601 20.64 20.0301 20.84 19.4501C21.05 18.8701 21.05 18.3801 20.98 18.2701C20.91 18.1601 20.76 18.1101 20.51 17.9901Z" fill="white"/>
</svg>
