<?xml version="1.0"?>
<svg xmlns="http://www.w3.org/2000/svg" xmlns:xlink="http://www.w3.org/1999/xlink" version="1.1" xml:space="preserve">
  <defs>

    <symbol id="loader" width="100%" height="100%" viewBox="22 22 44 44">
      <circle cx="44" cy="44" r="20.2" fill="none" stroke="currentColor" stroke-width="4"></circle>
    </symbol>

    <symbol id="burger" width="100%" height="100%" viewBox="0 0 48 48">
      <path d="M41,14H7a2,2,0,0,1,0-4H41A2,2,0,0,1,41,14Z" fill="currentColor"/>
      <path d="M41,26H7a2,2,0,0,1,0-4H41A2,2,0,0,1,41,26Z" fill="currentColor"/>
      <path d="M41,38H7a2,2,0,0,1,0-4H41A2,2,0,0,1,41,38Z" fill="currentColor"/>
    </symbol>

    <symbol id="close" width="100%" height="100%" viewBox="0 0 16 16">
      <path d="M1 15L15 1M1 1L15 15" stroke="currentColor" stroke-width="2" stroke-linecap="round" stroke-linejoin="round"/>
    </symbol>

    <symbol id="phone" width="100%" height="100%" viewBox="0 0 24 24">
      <path d="M15.5562 14.5477L15.1007 15.0272C15.1007 15.0272 14.0181 16.167 11.0631 13.0559C8.10812 9.94484 9.1907 8.80507 9.1907 8.80507L9.47752 8.50311C10.1841 7.75924 10.2507 6.56497 9.63424 5.6931L8.37326 3.90961C7.61028 2.8305 6.13596 2.68795 5.26145 3.60864L3.69185 5.26114C3.25823 5.71766 2.96765 6.30945 3.00289 6.96594C3.09304 8.64546 3.81071 12.259 7.81536 16.4752C12.0621 20.9462 16.0468 21.1239 17.6763 20.9631C18.1917 20.9122 18.6399 20.6343 19.0011 20.254L20.4217 18.7584C21.3806 17.7489 21.1102 16.0182 19.8833 15.312L17.9728 14.2123C17.1672 13.7486 16.1858 13.8848 15.5562 14.5477Z" fill="currentColor"/>
      <path d="M13.2595 1.88008C13.3257 1.47119 13.7122 1.19381 14.1211 1.26001C14.1464 1.26485 14.2279 1.28007 14.2705 1.28958C14.3559 1.30858 14.4749 1.33784 14.6233 1.38106C14.9201 1.46751 15.3347 1.60991 15.8323 1.83805C16.8286 2.2948 18.1544 3.09381 19.5302 4.46961C20.906 5.84541 21.705 7.17122 22.1617 8.1675C22.3899 8.66511 22.5323 9.07972 22.6187 9.3765C22.6619 9.5249 22.6912 9.64393 22.7102 9.72926C22.7197 9.77193 22.7267 9.80619 22.7315 9.8315L22.7373 9.86269C22.8034 10.2716 22.5286 10.6741 22.1197 10.7403C21.712 10.8063 21.3279 10.5303 21.2601 10.1233C21.258 10.1124 21.2522 10.083 21.2461 10.0553C21.2337 9.99994 21.2124 9.91212 21.1786 9.79597C21.1109 9.56363 20.9934 9.2183 20.7982 8.79262C20.4084 7.94232 19.7074 6.76813 18.4695 5.53027C17.2317 4.2924 16.0575 3.59141 15.2072 3.20158C14.7815 3.00642 14.4362 2.88889 14.2038 2.82122C14.0877 2.78739 13.9417 2.75387 13.8863 2.74154C13.4793 2.67372 13.1935 2.2878 13.2595 1.88008Z" fill="currentColor"/>
      <path fill-rule="evenodd" clip-rule="evenodd" d="M13.4857 5.32954C13.5995 4.93126 14.0146 4.70065 14.4129 4.81444L14.2069 5.53558C14.4129 4.81444 14.4129 4.81444 14.4129 4.81444L14.4144 4.81485L14.4159 4.81529L14.4192 4.81627L14.427 4.81858L14.4468 4.82475C14.4618 4.82957 14.4807 4.83585 14.5031 4.84381C14.548 4.85975 14.6074 4.88242 14.6802 4.91362C14.8259 4.97605 15.0249 5.07248 15.2695 5.21719C15.7589 5.50687 16.4271 5.98805 17.2121 6.77302C17.9971 7.55799 18.4782 8.22618 18.7679 8.71564C18.9126 8.96015 19.009 9.15922 19.0715 9.3049C19.1027 9.37771 19.1254 9.43707 19.1413 9.48198C19.1493 9.50443 19.1555 9.52326 19.1604 9.53834L19.1665 9.55812L19.1688 9.56587L19.1698 9.56921L19.1702 9.57074C19.1702 9.57074 19.1707 9.57218 18.4495 9.77822L19.1707 9.57218C19.2845 9.97046 19.0538 10.3856 18.6556 10.4994C18.2607 10.6122 17.8492 10.3864 17.7313 9.99437L17.7276 9.98359C17.7223 9.96856 17.7113 9.93898 17.6928 9.89578C17.6558 9.80944 17.5887 9.66821 17.4771 9.47962C17.2541 9.10288 16.8514 8.53363 16.1514 7.83368C15.4515 7.13373 14.8822 6.73102 14.5055 6.50805C14.3169 6.39644 14.1757 6.32934 14.0893 6.29234C14.0461 6.27382 14.0165 6.26279 14.0015 6.25746L13.9907 6.25376C13.5987 6.13588 13.3729 5.72443 13.4857 5.32954Z" fill="currentColor"/>
    </symbol>

    <symbol id="arrow-left" width="100%" height="100%" viewBox="0 0 11 18">
      <path d="M3.76777 9L9.88388 2.88388C10.372 2.39573 10.372 1.60427 9.88388 1.11612C9.39573 0.627961 8.60427 0.627961 8.11612 1.11612L1.11612 8.11612C0.62796 8.60427 0.62796 9.39573 1.11612 9.88388L8.11612 16.8839C8.60427 17.372 9.39573 17.372 9.88388 16.8839C10.372 16.3957 10.372 15.6043 9.88388 15.1161L3.76777 9Z" fill="currentColor"/>
    </symbol>

    <symbol id="arrow-right" width="100%" height="100%" viewBox="0 0 11 18">
      <path d="M7.23223 9L1.11612 2.88388C0.627961 2.39573 0.627961 1.60427 1.11612 1.11612C1.60427 0.627961 2.39573 0.627961 2.88388 1.11612L9.88388 8.11612C10.372 8.60427 10.372 9.39573 9.88388 9.88388L2.88388 16.8839C2.39573 17.372 1.60427 17.372 1.11612 16.8839C0.627961 16.3957 0.627961 15.6043 1.11612 15.1161L7.23223 9Z" fill="currentColor"/>
    </symbol>

    <symbol id="check" width="100%" height="100%" viewBox="0 0 16 16">
      <path d="M8 14C11.3137 14 14 11.3137 14 8C14 4.68629 11.3137 2 8 2C4.68629 2 2 4.68629 2 8C2 11.3137 4.68629 14 8 14Z" fill="var(--color-none)" stroke="currentColor" stroke-width="1.6" stroke-linecap="round" stroke-linejoin="round"/>
      <path d="M6 8L7.33333 9.33333L10 6.66667" fill="var(--color-none)" stroke="currentColor" stroke-width="1.6" stroke-linecap="round" stroke-linejoin="round"/>
    </symbol>

    <symbol id="lock" width="100%" height="100%" viewBox="0 0 46 46">
      <path fill-rule="evenodd" clip-rule="evenodd" d="M10.0625 19.2714V15.3334C10.0625 8.18819 15.8549 2.39587 23 2.39587C30.1452 2.39587 35.9375 8.18819 35.9375 15.3334V19.2714C38.0742 19.4309 39.4655 19.8338 40.4826 20.8508C42.1667 22.535 42.1667 25.2456 42.1667 30.6667C42.1667 36.0879 42.1667 38.7984 40.4826 40.4826C38.7984 42.1667 36.0879 42.1667 30.6667 42.1667H15.3334C9.91222 42.1667 7.20165 42.1667 5.51751 40.4826C3.83337 38.7984 3.83337 36.0879 3.83337 30.6667C3.83337 25.2456 3.83337 22.535 5.51751 20.8508C6.53455 19.8338 7.92593 19.4309 10.0625 19.2714ZM12.9375 15.3334C12.9375 9.77601 17.4427 5.27087 23 5.27087C28.5574 5.27087 33.0625 9.77601 33.0625 15.3334V19.1736C32.3284 19.1667 31.5321 19.1667 30.6667 19.1667H15.3334C14.468 19.1667 13.6716 19.1667 12.9375 19.1736V15.3334ZM23 25.3959C23.7939 25.3959 24.4375 26.0395 24.4375 26.8334V34.5C24.4375 35.2939 23.7939 35.9375 23 35.9375C22.2061 35.9375 21.5625 35.2939 21.5625 34.5V26.8334C21.5625 26.0395 22.2061 25.3959 23 25.3959Z" fill="currentColor"/>
    </symbol>

    <symbol id="list" width="100%" height="100%" viewBox="0 0 46 46">
      <path fill-rule="evenodd" clip-rule="evenodd" d="M6.64027 6.64027C3.83337 9.44716 3.83337 13.9648 3.83337 23C3.83337 32.0353 3.83337 36.5529 6.64027 39.3598C9.44716 42.1667 13.9648 42.1667 23 42.1667C32.0353 42.1667 36.5529 42.1667 39.3598 39.3598C42.1667 36.5529 42.1667 32.0353 42.1667 23C42.1667 13.9648 42.1667 9.44716 39.3598 6.64027C36.5529 3.83337 32.0353 3.83337 23 3.83337C13.9648 3.83337 9.44716 3.83337 6.64027 6.64027ZM20.2077 14.4081C20.7552 13.8332 20.733 12.9233 20.1581 12.3758C19.5832 11.8282 18.6733 11.8504 18.1258 12.4253L13.6905 17.0823L12.541 15.8753C11.9935 15.3004 11.0836 15.2782 10.5087 15.8258C9.93376 16.3733 9.91157 17.2832 10.4591 17.8581L12.6496 20.1581C12.9209 20.443 13.2971 20.6042 13.6905 20.6042C14.0839 20.6042 14.4601 20.443 14.7315 20.1581L20.2077 14.4081ZM24.9167 15.8125C24.1228 15.8125 23.4792 16.4561 23.4792 17.25C23.4792 18.044 24.1228 18.6875 24.9167 18.6875H34.5C35.294 18.6875 35.9375 18.044 35.9375 17.25C35.9375 16.4561 35.294 15.8125 34.5 15.8125H24.9167ZM20.2077 27.8248C20.7552 27.2499 20.733 26.34 20.1581 25.7924C19.5832 25.2449 18.6733 25.2671 18.1258 25.842L13.6905 30.499L12.541 29.292C11.9935 28.7171 11.0836 28.6949 10.5087 29.2424C9.93376 29.79 9.91157 30.6999 10.4591 31.2748L12.6496 33.5748C12.9209 33.8596 13.2971 34.0209 13.6905 34.0209C14.0839 34.0209 14.4601 33.8596 14.7315 33.5748L20.2077 27.8248ZM24.9167 29.2292C24.1228 29.2292 23.4792 29.8728 23.4792 30.6667C23.4792 31.4606 24.1228 32.1042 24.9167 32.1042H34.5C35.294 32.1042 35.9375 31.4606 35.9375 30.6667C35.9375 29.8728 35.294 29.2292 34.5 29.2292H24.9167Z" fill="currentColor"/>
    </symbol>

    <symbol id="shield" width="100%" height="100%" viewBox="0 0 46 46">
      <path fill-rule="evenodd" clip-rule="evenodd" d="M6.47357 9.7412C5.75 10.7721 5.75 13.8365 5.75 19.9652V22.9834C5.75 33.7897 13.8747 39.0338 18.9722 41.2605C20.355 41.8646 21.0464 42.1666 23 42.1666C24.9536 42.1666 25.645 41.8646 27.0278 41.2605C32.1253 39.0338 40.25 33.7897 40.25 22.9834V19.9652C40.25 13.8365 40.25 10.7721 39.5264 9.7412C38.8029 8.71029 35.9215 7.724 30.1589 5.75144L29.061 5.37563C26.0571 4.34738 24.5552 3.83325 23 3.83325C21.4448 3.83325 19.9429 4.34738 16.939 5.37563L15.8411 5.75144C10.0785 7.724 7.19714 8.71029 6.47357 9.7412ZM28.864 20.124C29.3927 19.5318 29.3413 18.6231 28.7491 18.0943C28.1569 17.5655 27.2481 17.617 26.7194 18.2092L20.9464 24.6749L19.2806 22.8092C18.7519 22.217 17.8431 22.1655 17.2509 22.6943C16.6587 23.2231 16.6073 24.1318 17.136 24.724L19.8741 27.7907C20.1469 28.0961 20.5369 28.2708 20.9464 28.2708C21.3559 28.2708 21.746 28.0961 22.0187 27.7907L28.864 20.124Z" fill="currentColor"/>
    </symbol>

    <symbol id="clock" width="100%" height="100%" viewBox="0 0 46 46">
      <path d="M42.1667 23C42.1667 33.5855 33.5855 42.1667 23 42.1667C12.4146 42.1667 3.83337 33.5855 3.83337 23C3.83337 12.4146 12.4146 3.83337 23 3.83337C33.5855 3.83337 42.1667 12.4146 42.1667 23Z" fill="currentColor"/>
      <path fill-rule="evenodd" clip-rule="evenodd" d="M23 13.8959C23.7939 13.8959 24.4375 14.5395 24.4375 15.3334V22.4046L28.8082 26.7752C29.3696 27.3366 29.3696 28.2468 28.8082 28.8082C28.2468 29.3696 27.3366 29.3696 26.7752 28.8082L21.9836 24.0165C21.714 23.7469 21.5625 23.3813 21.5625 23V15.3334C21.5625 14.5395 22.2061 13.8959 23 13.8959Z" fill="#95BAD6"/>
    </symbol>

    <symbol id="folder" width="100%" height="100%" viewBox="0 0 46 46">
      <path d="M3.83337 13.3204C3.83337 11.6289 3.83337 10.7831 3.9663 10.0786C4.55143 6.9773 6.9773 4.55143 10.0786 3.9663C10.7831 3.83337 11.6289 3.83337 13.3204 3.83337C14.0615 3.83337 14.4321 3.83337 14.7882 3.86668C16.3236 4.01026 17.78 4.61353 18.9673 5.59769C19.2426 5.82597 19.5047 6.088 20.0287 6.61206L21.0834 7.66671C22.647 9.23029 23.4287 10.0121 24.3649 10.5329C24.8792 10.8191 25.4247 11.045 25.9907 11.2064C27.021 11.5 28.1266 11.5 30.3379 11.5H31.0541C36.0994 11.5 38.6221 11.5 40.2619 12.9748C40.4127 13.1105 40.5562 13.2541 40.6919 13.4049C42.1667 15.0446 42.1667 17.5673 42.1667 22.6127V26.8334C42.1667 34.0616 42.1667 37.6757 39.9212 39.9212C37.6757 42.1667 34.0616 42.1667 26.8334 42.1667H19.1667C11.9385 42.1667 8.3244 42.1667 6.07889 39.9212C3.83337 37.6757 3.83337 34.0616 3.83337 26.8334V13.3204Z" fill="currentColor"/>
      <path fill-rule="evenodd" clip-rule="evenodd" d="M23.4792 19.1667C23.4792 18.3728 24.1228 17.7292 24.9167 17.7292H34.5C35.2939 17.7292 35.9375 18.3728 35.9375 19.1667C35.9375 19.9606 35.2939 20.6042 34.5 20.6042H24.9167C24.1228 20.6042 23.4792 19.9606 23.4792 19.1667Z" fill="#95BAD6"/>
      <path d="M32.5558 5.79017C32.2615 5.75004 31.911 5.75004 31.2101 5.75004H23L23.7089 6.48436C24.9854 7.8066 25.4762 8.30019 26.0431 8.62688C26.3722 8.81652 26.7212 8.96628 27.0833 9.07321C27.7072 9.25741 28.3912 9.26785 30.1964 9.26785L30.8373 9.26785C32.7586 9.26782 34.3075 9.2678 35.5329 9.42739C35.8386 9.4672 36.1332 9.51786 36.4167 9.58337C36.0609 7.59603 34.5082 6.05642 32.5558 5.79017Z" fill="currentColor"/>
    </symbol>

    <symbol id="key" width="100%" height="100%" viewBox="0 0 46 46">
      <path d="M27.2327 21.262C28.6328 21.262 29.7677 20.1317 29.7677 18.7373C29.7677 17.343 28.6328 16.2126 27.2327 16.2126C25.8326 16.2126 24.6977 17.343 24.6977 18.7373C24.6977 20.1317 25.8326 21.262 27.2327 21.262Z" fill="currentColor"/>
      <path fill-rule="evenodd" clip-rule="evenodd" d="M6.64021 6.64027C3.83331 9.44716 3.83331 13.9648 3.83331 23C3.83331 32.0353 3.83331 36.5529 6.64021 39.3598C9.4471 42.1667 13.9647 42.1667 23 42.1667C32.0352 42.1667 36.5529 42.1667 39.3598 39.3598C42.1666 36.5529 42.1666 32.0353 42.1666 23C42.1666 13.9648 42.1666 9.44716 39.3598 6.64027C36.5529 3.83337 32.0352 3.83337 23 3.83337C13.9647 3.83337 9.4471 3.83337 6.64021 6.64027ZM27.2328 25.9749C31.2464 25.9749 34.5 22.7346 34.5 18.7375C34.5 14.7404 31.2464 11.5 27.2328 11.5C23.2193 11.5 19.9657 14.7404 19.9657 18.7375C19.9657 20.5889 20.8107 21.9354 20.8107 21.9354L12.0225 30.6877C11.6282 31.0804 11.0761 32.1015 12.0225 33.0441L13.0366 34.054C13.4309 34.3906 14.4223 34.8619 15.2336 34.054L16.4166 32.8758C17.5996 34.054 18.9516 33.3807 19.4586 32.7075C20.3037 31.5293 19.2896 30.3511 19.2896 30.3511L19.6276 30.0144C21.2501 31.6303 22.6697 30.6877 23.1767 30.0144C24.0217 28.8363 23.1767 27.6581 23.1767 27.6581C23.0772 27.4599 22.9484 27.32 22.8377 27.1998C22.5725 26.9119 22.4115 26.7371 23.0077 26.1433L24.0218 25.1334C24.833 25.8066 26.5005 25.9749 27.2328 25.9749Z" fill="currentColor"/>
    </symbol>

    <symbol id="sofa" width="100%" height="100%" viewBox="0 0 46 46">
      <path d="M13.4166 23V24.9167H23H32.5833V23C32.5833 19.8288 35.1506 17.2571 38.3202 17.2501C38.304 16.6214 38.2676 16.1648 38.186 15.7543C37.581 12.7131 35.2036 10.3356 32.1623 9.73069C31.4217 9.58337 30.5311 9.58337 28.75 9.58337H23H17.25C15.4688 9.58337 14.5782 9.58337 13.8376 9.73069C10.7963 10.3356 8.41889 12.7131 7.81394 15.7543C7.73229 16.1648 7.6959 16.6214 7.67967 17.2501C10.8493 17.2571 13.4166 19.8288 13.4166 23Z" fill="currentColor"/>
      <path d="M35.3519 34.5H10.6482C10.1172 34.5 9.6003 34.4392 9.10421 34.3243V36.4166C9.10421 37.2105 8.46062 37.8541 7.66671 37.8541C6.8728 37.8541 6.22921 37.2105 6.22921 36.4166V32.8732C4.7631 31.6232 3.83337 29.7628 3.83337 27.6851V23C3.83337 20.8829 5.54962 19.1666 7.66671 19.1666C9.7838 19.1666 11.5 20.8829 11.5 23V25.3C11.5 26.1468 12.1865 26.8333 13.0334 26.8333H32.9667C33.8135 26.8333 34.5 26.1468 34.5 25.3V23C34.5 20.8829 36.2163 19.1666 38.3334 19.1666C40.4505 19.1666 42.1667 20.8829 42.1667 23V27.6851C42.1667 29.7628 41.237 31.6232 39.7709 32.8732V36.4166C39.7709 37.2105 39.1273 37.8541 38.3334 37.8541C37.5395 37.8541 36.8959 37.2105 36.8959 36.4166V34.3243C36.3998 34.4392 35.8829 34.5 35.3519 34.5Z" fill="currentColor"/>
    </symbol>

    <symbol id="cap" width="100%" height="100%" viewBox="0 0 46 46">
      <path d="M27.2497 6.70766C24.5261 5.43078 21.4738 5.43078 18.7502 6.70766L5.92561 12.7201C3.86328 13.687 3.32559 16.4134 4.31254 18.2978L4.31254 27.7917C4.31254 28.5856 4.95613 29.2292 5.75004 29.2292C6.54395 29.2292 7.18754 28.5856 7.18754 27.7917V20.4547L18.7504 25.8757C21.474 27.1526 24.5262 27.1526 27.2498 25.8757L40.0745 19.8632C42.8641 18.5553 42.8641 14.0281 40.0745 12.7202L27.2497 6.70766Z" fill="currentColor"/>
      <path d="M9.58337 24.7532V31.8654C9.58337 33.7974 10.5484 35.6063 12.2386 36.5423C15.053 38.1009 19.5577 40.25 23 40.25C26.4424 40.25 30.9471 38.1009 33.7615 36.5423C35.4517 35.6063 36.4167 33.7974 36.4167 31.8654V24.7533L28.4702 28.4788C24.9734 30.1182 21.0268 30.1182 17.53 28.4788L9.58337 24.7532Z" fill="currentColor"/>
    </symbol>

    <symbol id="calc" width="100%" height="100%" viewBox="0 0 46 46">
      <path fill-rule="evenodd" clip-rule="evenodd" d="M23 42.1666C14.8683 42.1666 10.8024 42.1666 8.2762 39.3597C5.75 36.5528 5.75 32.0352 5.75 22.9999C5.75 13.9647 5.75 9.44704 8.2762 6.64015C10.8024 3.83325 14.8683 3.83325 23 3.83325C31.1317 3.83325 35.1976 3.83325 37.7238 6.64015C40.25 9.44704 40.25 13.9647 40.25 22.9999C40.25 32.0352 40.25 36.5528 37.7238 39.3597C35.1976 42.1666 31.1317 42.1666 23 42.1666ZM28.75 11.4999H17.25C16.3588 11.4999 15.9132 11.4999 15.5476 11.5979C14.5554 11.8637 13.7805 12.6387 13.5146 13.6308C13.4167 13.9964 13.4167 14.442 13.4167 15.3333C13.4167 16.2245 13.4167 16.6701 13.5146 17.0357C13.7805 18.0278 14.5554 18.8028 15.5476 19.0686C15.9132 19.1666 16.3588 19.1666 17.25 19.1666H28.75C29.6412 19.1666 30.0868 19.1666 30.4524 19.0686C31.4446 18.8028 32.2195 18.0278 32.4854 17.0357C32.5833 16.6701 32.5833 16.2245 32.5833 15.3333C32.5833 14.442 32.5833 13.9964 32.4854 13.6308C32.2195 12.6387 31.4446 11.8637 30.4524 11.5979C30.0868 11.4999 29.6412 11.4999 28.75 11.4999ZM17.25 24.9166C17.25 25.9751 16.3919 26.8333 15.3333 26.8333C14.2748 26.8333 13.4167 25.9751 13.4167 24.9166C13.4167 23.858 14.2748 22.9999 15.3333 22.9999C16.3919 22.9999 17.25 23.858 17.25 24.9166ZM23 26.8333C24.0585 26.8333 24.9167 25.9751 24.9167 24.9166C24.9167 23.858 24.0585 22.9999 23 22.9999C21.9415 22.9999 21.0833 23.858 21.0833 24.9166C21.0833 25.9751 21.9415 26.8333 23 26.8333ZM32.5833 24.9166C32.5833 25.9751 31.7252 26.8333 30.6667 26.8333C29.6081 26.8333 28.75 25.9751 28.75 24.9166C28.75 23.858 29.6081 22.9999 30.6667 22.9999C31.7252 22.9999 32.5833 23.858 32.5833 24.9166ZM30.6667 34.4999C31.7252 34.4999 32.5833 33.6418 32.5833 32.5833C32.5833 31.5247 31.7252 30.6666 30.6667 30.6666C29.6081 30.6666 28.75 31.5247 28.75 32.5833C28.75 33.6418 29.6081 34.4999 30.6667 34.4999ZM24.9167 32.5833C24.9167 33.6418 24.0585 34.4999 23 34.4999C21.9415 34.4999 21.0833 33.6418 21.0833 32.5833C21.0833 31.5247 21.9415 30.6666 23 30.6666C24.0585 30.6666 24.9167 31.5247 24.9167 32.5833ZM15.3333 34.4999C16.3919 34.4999 17.25 33.6418 17.25 32.5833C17.25 31.5247 16.3919 30.6666 15.3333 30.6666C14.2748 30.6666 13.4167 31.5247 13.4167 32.5833C13.4167 33.6418 14.2748 34.4999 15.3333 34.4999Z" fill="currentColor"/>
    </symbol>

  </defs>
</svg>