<?xml version="1.0" standalone="no"?>
<!DOCTYPE svg PUBLIC "-//W3C//DTD SVG 20010904//EN"
 "http://www.w3.org/TR/2001/REC-SVG-20010904/DTD/svg10.dtd">
<svg version="1.0" xmlns="http://www.w3.org/2000/svg"
 width="260.000000pt" height="260.000000pt" viewBox="0 0 260.000000 260.000000"
 preserveAspectRatio="xMidYMid meet">
<metadata>
Created by potrace 1.14, written by Peter Selinger 2001-2017
</metadata>
<g transform="translate(0.000000,260.000000) scale(0.100000,-0.100000)"
fill="#000000" stroke="none">
<path d="M1119 2063 c-1 -4 -3 -33 -5 -63 -9 -182 -25 -280 -49 -300 -7 -6
-26 -13 -42 -16 -63 -11 -227 -56 -295 -80 -180 -65 -291 -147 -394 -290 -62
-87 -75 -126 -79 -245 -3 -101 16 -147 101 -237 68 -71 73 -80 70 -114 -2 -20
-7 -41 -10 -46 -8 -13 -8 -189 -1 -226 12 -61 31 -62 40 -3 4 23 9 53 12 67 6
36 47 124 83 176 16 25 30 47 30 50 0 5 55 67 95 109 11 11 40 36 64 55 24 19
49 41 56 48 8 6 18 12 24 12 6 0 11 4 11 8 0 5 23 19 50 32 28 13 50 27 50 31
0 10 -84 4 -140 -9 -122 -30 -280 -107 -298 -146 -7 -17 -12 -13 -35 34 -34
68 -36 140 -6 190 30 49 106 118 167 153 86 49 807 264 1012 302 14 3 70 14
125 25 55 11 116 22 135 24 19 2 75 9 123 15 106 14 264 18 295 7 49 -16 7
-79 -103 -156 -134 -92 -155 -96 -385 -75 -30 3 -89 8 -130 11 -41 3 -88 7
-104 9 -16 2 -25 0 -20 -5 5 -5 32 -12 59 -15 28 -3 61 -8 75 -10 14 -3 43 -7
65 -11 22 -3 81 -12 130 -21 158 -27 147 -28 227 24 40 27 77 51 83 56 5 4 40
30 77 57 94 70 130 126 100 153 -16 15 -96 41 -157 52 -32 5 -125 20 -188 29
-129 20 -539 28 -640 14 -35 -6 -38 -4 -53 31 -34 80 -59 128 -88 166 -60 81
-134 149 -137 128z"/>
<path d="M1510 1416 c0 -2 9 -6 20 -9 11 -3 20 -1 20 4 0 5 -9 9 -20 9 -11 0
-20 -2 -20 -4z"/>
</g>
</svg>
